<svg width="13" height="12" viewBox="0 0 13 12" fill="none" xmlns="http://www.w3.org/2000/svg">
<path d="M2.5 5.625C2.08579 5.625 1.75 5.96079 1.75 6.375C1.75 6.78921 2.08579 7.125 2.5 7.125V5.625ZM10.75 6.375L11.2803 6.90533C11.5732 6.61244 11.5732 6.13756 11.2803 5.84467L10.75 6.375ZM7.90533 2.46967C7.61244 2.17678 7.13756 2.17678 6.84467 2.46967C6.55178 2.76256 6.55178 3.23744 6.84467 3.53033L7.90533 2.46967ZM6.84467 9.21967C6.55178 9.51256 6.55178 9.98744 6.84467 10.2803C7.13756 10.5732 7.61244 10.5732 7.90533 10.2803L6.84467 9.21967ZM2.5 7.125H10.75V5.625H2.5V7.125ZM6.84467 3.53033L10.2197 6.90533L11.2803 5.84467L7.90533 2.46967L6.84467 3.53033ZM10.2197 5.84467L6.84467 9.21967L7.90533 10.2803L11.2803 6.90533L10.2197 5.84467Z" fill="#3396BB"/>
</svg>
