<svg width="56" height="56" viewBox="0 0 56 56" fill="none" xmlns="http://www.w3.org/2000/svg">
  <path fill-rule="evenodd" clip-rule="evenodd" d="M28 21C28.9665 21 29.75 21.7835 29.75 22.75V31.5C29.75 32.4665 28.9665 33.25 28 33.25C27.0335 33.25 26.25 32.4665 26.25 31.5V22.75C26.25 21.7835 27.0335 21 28 21Z" fill="#EB4242"/>
  <path fill-rule="evenodd" clip-rule="evenodd" d="M25.3773 5.95494C26.1741 5.49287 27.0789 5.24951 28 5.24951C28.9211 5.24951 29.8259 5.49286 30.6227 5.95494C31.4182 6.41623 32.0779 7.07915 32.5353 7.87679C32.5361 7.87814 32.5368 7.87949 32.5376 7.88085L51.7843 41.1251C52.2443 41.9218 52.4869 42.8254 52.4877 43.7454C52.4885 44.6654 52.2475 45.5695 51.7889 46.3671C51.3303 47.1646 50.6702 47.8277 49.8747 48.2898C49.0792 48.7519 48.1762 48.9968 47.2562 49L47.25 49.0001H8.75L8.74384 49C7.82384 48.9968 6.92085 48.7519 6.12532 48.2898C5.32979 47.8277 4.66967 47.1646 4.21107 46.3671C3.75248 45.5695 3.51152 44.6654 3.51233 43.7454C3.51315 42.8254 3.75571 41.9218 4.21571 41.1251L23.4624 7.88085C23.4632 7.87949 23.4639 7.87814 23.4647 7.87679C23.9221 7.07915 24.5818 6.41623 25.3773 5.95494ZM24.9812 8.75006L26.4957 9.62688L7.24679 42.8751C7.24666 42.8753 7.24692 42.8748 7.24679 42.8751C7.09371 43.1405 7.0126 43.4421 7.01233 43.7485C7.01206 44.0552 7.09238 44.3566 7.24524 44.6224C7.39811 44.8883 7.61815 45.1093 7.88333 45.2633C8.14781 45.4169 8.44794 45.4986 8.75378 45.5001H47.2462C47.5521 45.4986 47.8522 45.4169 48.1167 45.2633C48.3819 45.1093 48.6019 44.8883 48.7548 44.6224C48.9076 44.3565 48.9879 44.0552 48.9877 43.7485C48.9874 43.4423 48.9068 43.1414 48.7538 42.8761C48.7536 42.8758 48.754 42.8764 48.7538 42.8761L29.4999 9.61929C29.3486 9.35504 29.1303 9.13542 28.8669 8.98269C28.6035 8.82995 28.3045 8.74951 28 8.74951C27.6955 8.74951 27.3965 8.82995 27.1331 8.98269C26.8697 9.13542 26.6513 9.35503 26.5001 9.61928L24.9812 8.75006Z" fill="#EB4242"/>
  <path d="M28 42C29.4497 42 30.625 40.8247 30.625 39.375C30.625 37.9253 29.4497 36.75 28 36.75C26.5503 36.75 25.375 37.9253 25.375 39.375C25.375 40.8247 26.5503 42 28 42Z" fill="#EB4242"/>
</svg>
