<svg width="16" height="16" viewBox="0 0 16 16" fill="none" xmlns="http://www.w3.org/2000/svg">
  <path d="M3 2.5L13 13.5" stroke="#313253" stroke-linecap="round" stroke-linejoin="round"/>
  <path d="M9.68123 9.8499C9.22244 10.2702 8.62218 10.5023 7.99998 10.4999C7.49539 10.4998 7.00263 10.3471 6.58648 10.0618C6.17033 9.77642 5.85026 9.37182 5.66835 8.90117C5.48645 8.43051 5.45122 7.91583 5.5673 7.42477C5.68338 6.93372 5.94533 6.48929 6.31873 6.1499" stroke="#313253" stroke-linecap="round" stroke-linejoin="round"/>
  <path d="M4.625 4.2876C2.075 5.5751 1 8.0001 1 8.0001C1 8.0001 3 12.5001 8 12.5001C9.17161 12.5096 10.3286 12.2397 11.375 11.7126" stroke="#313253" stroke-linecap="round" stroke-linejoin="round"/>
  <path d="M13.0375 10.5688C14.4 9.35002 15 8.00002 15 8.00002C15 8.00002 13 3.50002 8.00005 3.50002C7.56658 3.49916 7.13382 3.5347 6.7063 3.60627" stroke="#313253" stroke-linecap="round" stroke-linejoin="round"/>
  <path d="M8.46875 5.54395C9.0004 5.64468 9.48487 5.91561 9.84903 6.31585C10.2132 6.71609 10.4373 7.22392 10.4875 7.7627" stroke="#313253" stroke-linecap="round" stroke-linejoin="round"/>
</svg>
