<svg width="20" height="20" viewBox="0 0 20 20" fill="none" xmlns="http://www.w3.org/2000/svg">
  <path d="M18.8047 9.51568L16.875 10.4766L14.375 5.69537L16.3281 4.71881C16.4733 4.64482 16.6418 4.63122 16.7969 4.68098C16.9521 4.73074 17.0812 4.83982 17.1563 4.98443L19.0781 8.66412C19.1171 8.73778 19.1409 8.81849 19.1483 8.9015C19.1556 8.98451 19.1462 9.06815 19.1208 9.14749C19.0953 9.22683 19.0542 9.30028 18.9999 9.36351C18.9456 9.42674 18.8793 9.47848 18.8047 9.51568V9.51568Z" stroke="#313253" stroke-width="1.5" stroke-linecap="round" stroke-linejoin="round"/>
  <path d="M3.12487 10.3984L1.19518 9.42968C1.12088 9.39327 1.05466 9.34228 1.00046 9.27976C0.946257 9.21724 0.90518 9.14446 0.879671 9.06575C0.854162 8.98703 0.844741 8.90399 0.851968 8.82157C0.859196 8.73914 0.882924 8.659 0.921742 8.58593L2.84362 4.90624C2.9188 4.76174 3.04743 4.65229 3.20211 4.60122C3.35679 4.55014 3.52529 4.56148 3.67174 4.63281L5.62487 5.60937L3.12487 10.3984Z" stroke="#313253" stroke-width="1.5" stroke-linecap="round" stroke-linejoin="round"/>
  <path d="M16.875 10.4766L15.625 11.9453L12.75 14.8203C12.6716 14.8936 12.5767 14.9468 12.4733 14.9754C12.3699 15.0039 12.2611 15.007 12.1563 14.9844L7.625 13.8516C7.54223 13.8285 7.4651 13.7886 7.39844 13.7344L3.125 10.3984" stroke="#313253" stroke-width="1.5" stroke-linecap="round" stroke-linejoin="round"/>
  <path d="M15.6248 11.9453L12.1873 9.44532L11.1873 10.1953C10.7541 10.5187 10.2279 10.6934 9.68732 10.6934C9.14671 10.6934 8.62057 10.5187 8.18733 10.1953L7.76545 9.875C7.69411 9.82077 7.6351 9.752 7.59234 9.67324C7.54957 9.59449 7.52402 9.50755 7.51737 9.41818C7.51072 9.32882 7.52313 9.23905 7.55378 9.15484C7.58442 9.07063 7.63261 8.99389 7.69514 8.92969L10.7576 5.875C10.8152 5.81776 10.8834 5.77242 10.9585 5.74159C11.0336 5.71076 11.114 5.69503 11.1951 5.69532H14.3748" stroke="#313253" stroke-width="1.5" stroke-linecap="round" stroke-linejoin="round"/>
  <path d="M5.67188 5.60942L9.67969 4.43755C9.82209 4.39671 9.97438 4.40778 10.1094 4.4688L12.8125 5.69536" stroke="#313253" stroke-width="1.5" stroke-linecap="round" stroke-linejoin="round"/>
  <path d="M8.75 16.6328L6.39844 16.0391C6.30261 16.0174 6.21388 15.9717 6.14062 15.9063L4.375 14.375" stroke="#313253" stroke-width="1.5" stroke-linecap="round" stroke-linejoin="round"/>
</svg>
