<svg width="20" height="20" viewBox="0 0 20 20" fill="none" xmlns="http://www.w3.org/2000/svg">
  <path d="M10 14.1562C12.2954 14.1562 14.1562 12.2954 14.1562 10C14.1562 7.70457 12.2954 5.84375 10 5.84375C7.70457 5.84375 5.84375 7.70457 5.84375 10C5.84375 12.2954 7.70457 14.1562 10 14.1562Z" stroke="#D6D6DD" stroke-width="2" stroke-miterlimit="10"/>
  <path d="M14.2595 1.09375H5.74049C3.17417 1.09375 1.09375 3.17417 1.09375 5.74049V14.2595C1.09375 16.8258 3.17417 18.9062 5.74049 18.9062H14.2595C16.8258 18.9062 18.9062 16.8258 18.9062 14.2595V5.74049C18.9062 3.17417 16.8258 1.09375 14.2595 1.09375Z" stroke="#D6D6DD" stroke-width="2" stroke-linecap="round" stroke-linejoin="round"/>
  <path d="M15.0469 5.84375C15.5388 5.84375 15.9375 5.445 15.9375 4.95312C15.9375 4.46125 15.5388 4.0625 15.0469 4.0625C14.555 4.0625 14.1562 4.46125 14.1562 4.95312C14.1562 5.445 14.555 5.84375 15.0469 5.84375Z" fill="#D6D6DD"/>
</svg>
