<svg width="20" height="20" viewBox="0 0 20 20" fill="none" xmlns="http://www.w3.org/2000/svg">
  <path d="M10 13.75C13.4518 13.75 16.25 10.9518 16.25 7.5C16.25 4.04822 13.4518 1.25 10 1.25C6.54822 1.25 3.75 4.04822 3.75 7.5C3.75 10.9518 6.54822 13.75 10 13.75Z" stroke="#313253" stroke-width="1.5" stroke-linecap="round" stroke-linejoin="round"/>
  <path d="M10 11.25C12.0711 11.25 13.75 9.57107 13.75 7.5C13.75 5.42893 12.0711 3.75 10 3.75C7.92893 3.75 6.25 5.42893 6.25 7.5C6.25 9.57107 7.92893 11.25 10 11.25Z" stroke="#313253" stroke-width="1.5" stroke-linecap="round" stroke-linejoin="round"/>
  <path d="M13.75 12.5V18.75L10 16.875L6.25 18.75V12.5" stroke="#313253" stroke-width="1.5" stroke-linecap="round" stroke-linejoin="round"/>
</svg>
