<svg width="56" height="56" viewBox="0 0 56 56" fill="none" xmlns="http://www.w3.org/2000/svg">
<path fill-rule="evenodd" clip-rule="evenodd" d="M38.8912 21.542C39.5584 22.2413 39.5323 23.3491 38.833 24.0162L25.9924 36.2662C25.3158 36.9117 24.2513 36.9112 23.5753 36.2652L17.166 30.1402C16.4672 29.4724 16.4421 28.3647 17.1098 27.666C17.7776 26.9672 18.8853 26.9421 19.5841 27.6098L24.7854 32.5804L36.417 21.4838C37.1163 20.8166 38.2241 20.8427 38.8912 21.542Z" fill="#5EB346"/>
<path fill-rule="evenodd" clip-rule="evenodd" d="M28 8.75C17.3685 8.75 8.75 17.3685 8.75 28C8.75 38.6315 17.3685 47.25 28 47.25C38.6315 47.25 47.25 38.6315 47.25 28C47.25 17.3685 38.6315 8.75 28 8.75ZM5.25 28C5.25 15.4355 15.4355 5.25 28 5.25C40.5645 5.25 50.75 15.4355 50.75 28C50.75 40.5645 40.5645 50.75 28 50.75C15.4355 50.75 5.25 40.5645 5.25 28Z" fill="#5EB346"/>
</svg>
